<?xml version="1.0" encoding="UTF-8"?>
<svg xmlns="http://www.w3.org/2000/svg" xmlns:xlink="http://www.w3.org/1999/xlink" width="176.0" height="139.1" viewBox="0 0 73.329 57.966">
<defs>
<g>
<g id="glyph-0-0">
<path d="M 2.703125 -5.6875 C 2.703125 -5.90625 2.6875 -5.921875 2.46875 -5.921875 C 1.921875 -5.359375 1.109375 -5.359375 0.828125 -5.359375 L 0.828125 -5.078125 C 1 -5.078125 1.53125 -5.078125 2.015625 -5.3125 L 2.015625 -0.71875 C 2.015625 -0.375 1.984375 -0.28125 1.171875 -0.28125 L 0.875 -0.28125 L 0.875 0 C 1.203125 -0.03125 1.984375 -0.03125 2.359375 -0.03125 C 2.71875 -0.03125 3.515625 -0.03125 3.84375 0 L 3.84375 -0.28125 L 3.5625 -0.28125 C 2.734375 -0.28125 2.703125 -0.375 2.703125 -0.71875 Z M 2.703125 -5.6875 "/>
</g>
<g id="glyph-0-1">
<path d="M 4.203125 -2.84375 C 4.203125 -3.4375 4.171875 -4.203125 3.875 -4.875 C 3.46875 -5.703125 2.796875 -5.921875 2.28125 -5.921875 C 1.75 -5.921875 1.078125 -5.703125 0.6875 -4.859375 C 0.40625 -4.234375 0.359375 -3.515625 0.359375 -2.84375 C 0.359375 -2.265625 0.375 -1.40625 0.75 -0.703125 C 1.171875 0.046875 1.859375 0.203125 2.28125 0.203125 C 2.859375 0.203125 3.515625 -0.046875 3.890625 -0.875 C 4.15625 -1.46875 4.203125 -2.140625 4.203125 -2.84375 Z M 2.28125 -0.03125 C 2.015625 -0.03125 1.375 -0.15625 1.203125 -1.15625 C 1.125 -1.6875 1.125 -2.4375 1.125 -2.953125 C 1.125 -3.5625 1.125 -4.265625 1.234375 -4.75 C 1.40625 -5.53125 1.96875 -5.703125 2.28125 -5.703125 C 2.609375 -5.703125 3.171875 -5.515625 3.34375 -4.6875 C 3.4375 -4.203125 3.4375 -3.515625 3.4375 -2.953125 C 3.4375 -2.40625 3.4375 -1.65625 3.359375 -1.125 C 3.171875 -0.109375 2.5 -0.03125 2.28125 -0.03125 Z M 2.28125 -0.03125 "/>
</g>
<g id="glyph-1-0">
<path d="M 4 -4.8125 C 4.0625 -4.890625 4.0625 -4.90625 4.0625 -5.078125 L 2.0625 -5.078125 C 1.859375 -5.078125 1.625 -5.09375 1.421875 -5.109375 C 1.015625 -5.140625 1 -5.203125 0.984375 -5.328125 L 0.734375 -5.328125 L 0.46875 -3.671875 L 0.703125 -3.671875 C 0.71875 -3.78125 0.8125 -4.328125 0.921875 -4.390625 C 1.015625 -4.4375 1.609375 -4.4375 1.71875 -4.4375 L 3.390625 -4.4375 L 2.578125 -3.34375 C 1.6875 -2.140625 1.484375 -0.90625 1.484375 -0.28125 C 1.484375 -0.203125 1.484375 0.171875 1.859375 0.171875 C 2.234375 0.171875 2.234375 -0.1875 2.234375 -0.28125 L 2.234375 -0.65625 C 2.234375 -1.796875 2.421875 -2.734375 2.8125 -3.25 Z M 4 -4.8125 "/>
</g>
<g id="glyph-1-1">
<path d="M 2.21875 -1.609375 C 2.34375 -1.734375 2.6875 -1.984375 2.8125 -2.09375 C 3.296875 -2.546875 3.765625 -2.984375 3.765625 -3.703125 C 3.765625 -4.640625 2.96875 -5.25 1.984375 -5.25 C 1.046875 -5.25 0.421875 -4.53125 0.421875 -3.828125 C 0.421875 -3.4375 0.71875 -3.390625 0.84375 -3.390625 C 1 -3.390625 1.25 -3.5 1.25 -3.796875 C 1.25 -4.21875 0.859375 -4.21875 0.75 -4.21875 C 0.984375 -4.796875 1.515625 -4.984375 1.90625 -4.984375 C 2.640625 -4.984375 3.015625 -4.359375 3.015625 -3.703125 C 3.015625 -2.875 2.4375 -2.28125 1.5 -1.328125 L 0.515625 -0.296875 C 0.421875 -0.21875 0.421875 -0.203125 0.421875 0 L 3.53125 0 L 3.765625 -1.40625 L 3.515625 -1.40625 C 3.5 -1.25 3.4375 -0.859375 3.34375 -0.703125 C 3.296875 -0.640625 2.6875 -0.640625 2.5625 -0.640625 L 1.15625 -0.640625 Z M 2.21875 -1.609375 "/>
</g>
<g id="glyph-2-0">
<path d="M 3.234375 -1.484375 C 3.234375 -2.234375 2.625 -2.828125 1.890625 -2.828125 C 1.15625 -2.828125 0.546875 -2.234375 0.546875 -1.484375 C 0.546875 -0.734375 1.15625 -0.140625 1.890625 -0.140625 C 2.625 -0.140625 3.234375 -0.734375 3.234375 -1.484375 Z M 1.890625 -0.4375 C 1.328125 -0.4375 0.859375 -0.90625 0.859375 -1.484375 C 0.859375 -2.0625 1.328125 -2.515625 1.890625 -2.515625 C 2.453125 -2.515625 2.921875 -2.0625 2.921875 -1.484375 C 2.921875 -0.90625 2.453125 -0.4375 1.890625 -0.4375 Z M 1.890625 -0.4375 "/>
</g>
<g id="glyph-3-0">
<path d="M 3.953125 -3.140625 C 3.609375 -3.0625 3.59375 -2.75 3.59375 -2.71875 C 3.59375 -2.546875 3.71875 -2.4375 3.890625 -2.4375 C 4.078125 -2.4375 4.34375 -2.5625 4.34375 -2.90625 C 4.34375 -3.359375 3.84375 -3.484375 3.546875 -3.484375 C 3.1875 -3.484375 2.875 -3.21875 2.703125 -2.90625 C 2.53125 -3.328125 2.109375 -3.484375 1.796875 -3.484375 C 0.9375 -3.484375 0.453125 -2.5 0.453125 -2.265625 C 0.453125 -2.203125 0.5 -2.171875 0.5625 -2.171875 C 0.65625 -2.171875 0.671875 -2.203125 0.703125 -2.296875 C 0.890625 -2.875 1.359375 -3.265625 1.765625 -3.265625 C 2.078125 -3.265625 2.21875 -3.03125 2.21875 -2.75 C 2.21875 -2.59375 2.125 -2.234375 2.0625 -1.984375 C 2.015625 -1.75 1.84375 -1.046875 1.796875 -0.90625 C 1.6875 -0.46875 1.40625 -0.140625 1.046875 -0.140625 C 1.015625 -0.140625 0.8125 -0.140625 0.640625 -0.25 C 1.015625 -0.34375 1.015625 -0.671875 1.015625 -0.671875 C 1.015625 -0.859375 0.875 -0.96875 0.6875 -0.96875 C 0.484375 -0.96875 0.25 -0.796875 0.25 -0.484375 C 0.25 -0.125 0.640625 0.078125 1.046875 0.078125 C 1.453125 0.078125 1.75 -0.234375 1.890625 -0.484375 C 2.0625 -0.109375 2.4375 0.078125 2.8125 0.078125 C 3.671875 0.078125 4.140625 -0.90625 4.140625 -1.125 C 4.140625 -1.203125 4.078125 -1.234375 4.03125 -1.234375 C 3.921875 -1.234375 3.90625 -1.171875 3.890625 -1.09375 C 3.734375 -0.5625 3.28125 -0.140625 2.828125 -0.140625 C 2.5625 -0.140625 2.375 -0.3125 2.375 -0.640625 C 2.375 -0.8125 2.421875 -0.984375 2.53125 -1.421875 C 2.59375 -1.671875 2.765625 -2.359375 2.796875 -2.515625 C 2.90625 -2.921875 3.1875 -3.265625 3.546875 -3.265625 C 3.578125 -3.265625 3.78125 -3.265625 3.953125 -3.140625 Z M 3.953125 -3.140625 "/>
</g>
<g id="glyph-3-1">
<path d="M 4.09375 -2.96875 C 4.125 -3.078125 4.125 -3.09375 4.125 -3.15625 C 4.125 -3.359375 3.96875 -3.40625 3.859375 -3.40625 C 3.828125 -3.40625 3.640625 -3.390625 3.546875 -3.1875 C 3.53125 -3.140625 3.453125 -2.859375 3.421875 -2.703125 L 2.9375 -0.8125 C 2.9375 -0.78125 2.59375 -0.140625 2.015625 -0.140625 C 1.640625 -0.140625 1.5 -0.421875 1.5 -0.78125 C 1.5 -1.234375 1.765625 -1.9375 1.953125 -2.40625 C 2.03125 -2.59375 2.046875 -2.671875 2.046875 -2.8125 C 2.046875 -3.25 1.703125 -3.484375 1.34375 -3.484375 C 0.5625 -3.484375 0.234375 -2.375 0.234375 -2.265625 C 0.234375 -2.203125 0.296875 -2.171875 0.359375 -2.171875 C 0.453125 -2.171875 0.46875 -2.21875 0.484375 -2.296875 C 0.6875 -2.984375 1.03125 -3.265625 1.3125 -3.265625 C 1.4375 -3.265625 1.5 -3.1875 1.5 -3 C 1.5 -2.828125 1.4375 -2.65625 1.390625 -2.515625 C 1.0625 -1.671875 0.9375 -1.265625 0.9375 -0.90625 C 0.9375 -0.125 1.515625 0.078125 1.984375 0.078125 C 2.34375 0.078125 2.625 -0.09375 2.8125 -0.265625 C 2.703125 0.171875 2.625 0.484375 2.3125 0.859375 C 2.0625 1.1875 1.75 1.390625 1.390625 1.390625 C 1.25 1.390625 0.953125 1.359375 0.796875 1.125 C 1.21875 1.09375 1.25 0.734375 1.25 0.6875 C 1.25 0.5 1.109375 0.40625 0.9375 0.40625 C 0.765625 0.40625 0.484375 0.53125 0.484375 0.921875 C 0.484375 1.296875 0.828125 1.609375 1.390625 1.609375 C 2.1875 1.609375 3.09375 0.96875 3.34375 0.015625 Z M 4.09375 -2.96875 "/>
</g>
</g>
<clipPath id="clip-0">
<path clip-rule="nonzero" d="M 0 0.246094 L 72.664062 0.246094 L 72.664062 44 L 0 44 Z M 0 0.246094 "/>
</clipPath>
</defs>
<path fill-rule="nonzero" fill="rgb(80.39093%, 90.586853%, 96.076965%)" fill-opacity="1" d="M 0.9375 42.796875 L 71.726562 42.796875 L 58.199219 1.1875 Z M 0.9375 42.796875 "/>
<g clip-path="url(#clip-0)">
<path fill="none" stroke-width="0.89664" stroke-linecap="round" stroke-linejoin="round" stroke="rgb(13.723755%, 13.723755%, 13.723755%)" stroke-opacity="1" stroke-miterlimit="10" d="M -0.00192137 0.000720574 L 71.434899 0.000720574 L 57.783773 41.990844 Z M -0.00192137 0.000720574 " transform="matrix(0.990932, 0, 0, -0.990932, 0.939404, 42.797589)"/>
</g>
<g fill="rgb(0%, 0%, 0%)" fill-opacity="1">
<use xlink:href="#glyph-0-0" x="19.631362" y="18.863598"/>
<use xlink:href="#glyph-0-1" x="24.197414" y="18.863598"/>
</g>
<g fill="rgb(0%, 0%, 0%)" fill-opacity="1">
<use xlink:href="#glyph-0-0" x="31.766321" y="53.587852"/>
<use xlink:href="#glyph-0-1" x="36.332372" y="53.587852"/>
</g>
<g fill="rgb(0%, 0%, 0%)" fill-opacity="1">
<use xlink:href="#glyph-1-0" x="47.946266" y="16.025568"/>
<use xlink:href="#glyph-1-1" x="52.142383" y="16.025568"/>
</g>
<g fill="rgb(0%, 0%, 0%)" fill-opacity="1">
<use xlink:href="#glyph-2-0" x="56.337482" y="13.238075"/>
</g>
<g fill="rgb(0%, 0%, 0%)" fill-opacity="1">
<use xlink:href="#glyph-3-0" x="11.723722" y="40.200355"/>
</g>
<g fill="rgb(0%, 0%, 0%)" fill-opacity="1">
<use xlink:href="#glyph-3-1" x="58.385739" y="36.399138"/>
</g>
</svg>
