<?xml version="1.0" encoding="UTF-8"?>
<svg xmlns="http://www.w3.org/2000/svg" xmlns:xlink="http://www.w3.org/1999/xlink" width="415.0" height="297.1" viewBox="0 0 172.923 123.771">
<defs>
<g>
<g id="glyph-0-0">
<path d="M 1.625 -1.046875 C 1.1875 -0.328125 0.796875 -0.296875 0.4375 -0.28125 C 0.375 -0.265625 0.328125 -0.203125 0.328125 -0.109375 C 0.328125 -0.0625 0.359375 0 0.453125 0 C 0.625 0 1.046875 -0.03125 1.21875 -0.03125 C 1.421875 -0.03125 1.890625 0 2.09375 0 C 2.15625 0 2.265625 0 2.265625 -0.15625 C 2.265625 -0.265625 2.15625 -0.28125 2.125 -0.28125 C 2.046875 -0.28125 1.703125 -0.296875 1.703125 -0.578125 C 1.703125 -0.703125 1.8125 -0.875 1.828125 -0.90625 L 2.546875 -2.0625 L 4.875 -2.0625 C 4.90625 -1.859375 4.9375 -1.5625 4.953125 -1.328125 C 5 -0.984375 5.046875 -0.59375 5.046875 -0.5625 C 5.046875 -0.4375 4.921875 -0.28125 4.40625 -0.28125 C 4.3125 -0.28125 4.203125 -0.28125 4.203125 -0.109375 C 4.203125 -0.015625 4.265625 0 4.328125 0 C 4.5 0 4.71875 -0.015625 4.890625 -0.015625 C 5.078125 -0.015625 5.296875 -0.03125 5.4375 -0.03125 C 5.734375 -0.03125 5.75 -0.03125 5.96875 -0.015625 C 6.109375 -0.015625 6.3125 0 6.453125 0 C 6.515625 0 6.625 0 6.625 -0.15625 C 6.625 -0.28125 6.53125 -0.28125 6.421875 -0.28125 C 5.875 -0.28125 5.875 -0.34375 5.84375 -0.59375 L 5.21875 -6.171875 C 5.203125 -6.359375 5.1875 -6.40625 5.046875 -6.40625 C 4.921875 -6.40625 4.859375 -6.34375 4.796875 -6.234375 Z M 2.71875 -2.34375 L 4.515625 -5.296875 L 4.859375 -2.34375 Z M 2.71875 -2.34375 "/>
</g>
<g id="glyph-0-1">
<path d="M 1.453125 -0.6875 C 1.375 -0.359375 1.359375 -0.28125 0.6875 -0.28125 C 0.515625 -0.28125 0.421875 -0.28125 0.421875 -0.109375 C 0.421875 0 0.515625 0 0.671875 0 L 3.9375 0 C 5.375 0 6.453125 -1.0625 6.453125 -1.921875 C 6.453125 -2.5625 5.921875 -3.09375 5.03125 -3.203125 C 6.046875 -3.390625 6.921875 -4.078125 6.921875 -4.875 C 6.921875 -5.5625 6.28125 -6.109375 5.203125 -6.109375 L 2.15625 -6.109375 C 1.984375 -6.109375 1.875 -6.109375 1.875 -5.953125 C 1.875 -5.84375 1.953125 -5.84375 2.15625 -5.84375 C 2.1875 -5.84375 2.34375 -5.84375 2.484375 -5.8125 C 2.640625 -5.796875 2.703125 -5.78125 2.703125 -5.6875 C 2.703125 -5.640625 2.6875 -5.609375 2.671875 -5.5 Z M 2.859375 -3.296875 L 3.40625 -5.484375 C 3.484375 -5.8125 3.5 -5.84375 3.875 -5.84375 L 5.078125 -5.84375 C 6.015625 -5.84375 6.09375 -5.125 6.09375 -4.90625 C 6.09375 -4.109375 5.265625 -3.296875 4.25 -3.296875 Z M 2.421875 -0.28125 C 2.296875 -0.28125 2.28125 -0.28125 2.25 -0.28125 C 2.15625 -0.296875 2.125 -0.296875 2.125 -0.359375 C 2.125 -0.390625 2.125 -0.40625 2.171875 -0.578125 L 2.796875 -3.078125 L 4.46875 -3.078125 C 5.03125 -3.078125 5.59375 -2.828125 5.59375 -2.015625 C 5.59375 -1.125 4.78125 -0.28125 3.703125 -0.28125 Z M 2.421875 -0.28125 "/>
</g>
<g id="glyph-0-2">
<path d="M 6.9375 -6.0625 C 6.953125 -6.171875 6.953125 -6.203125 6.953125 -6.21875 C 6.953125 -6.21875 6.953125 -6.3125 6.84375 -6.3125 C 6.796875 -6.3125 6.765625 -6.28125 6.703125 -6.21875 L 6.15625 -5.609375 C 6.125 -5.5625 6.09375 -5.53125 6.078125 -5.53125 C 6.0625 -5.53125 6.0625 -5.546875 6 -5.609375 C 5.875 -5.78125 5.46875 -6.3125 4.546875 -6.3125 C 2.484375 -6.3125 0.453125 -4.328125 0.453125 -2.28125 C 0.453125 -0.828125 1.515625 0.203125 2.96875 0.203125 C 3.890625 0.203125 4.625 -0.28125 4.984375 -0.59375 C 5.796875 -1.328125 5.9375 -2.109375 5.9375 -2.15625 C 5.9375 -2.1875 5.921875 -2.25 5.8125 -2.25 C 5.71875 -2.25 5.703125 -2.1875 5.6875 -2.15625 C 5.25 -0.71875 3.96875 -0.078125 3.078125 -0.078125 C 2.21875 -0.078125 1.296875 -0.609375 1.296875 -1.953125 C 1.296875 -2.359375 1.421875 -3.78125 2.328125 -4.875 C 2.859375 -5.53125 3.75 -6.03125 4.609375 -6.03125 C 5.59375 -6.03125 6.125 -5.265625 6.125 -4.28125 C 6.125 -3.984375 6.09375 -3.921875 6.09375 -3.84375 C 6.09375 -3.75 6.203125 -3.75 6.234375 -3.75 C 6.34375 -3.75 6.34375 -3.765625 6.390625 -3.9375 Z M 6.9375 -6.0625 "/>
</g>
<g id="glyph-0-3">
<path d="M 1.4375 -0.6875 C 1.359375 -0.359375 1.34375 -0.28125 0.671875 -0.28125 C 0.5 -0.28125 0.40625 -0.28125 0.40625 -0.109375 C 0.40625 0 0.5 0 0.65625 0 L 3.671875 0 C 5.59375 0 7.375 -1.890625 7.375 -3.828125 C 7.375 -5.0625 6.59375 -6.109375 5.203125 -6.109375 L 2.125 -6.109375 C 1.96875 -6.109375 1.859375 -6.109375 1.859375 -5.953125 C 1.859375 -5.84375 1.9375 -5.84375 2.125 -5.84375 C 2.171875 -5.84375 2.328125 -5.84375 2.46875 -5.8125 C 2.625 -5.796875 2.6875 -5.78125 2.6875 -5.6875 C 2.6875 -5.640625 2.671875 -5.609375 2.65625 -5.5 Z M 3.40625 -5.484375 C 3.484375 -5.8125 3.515625 -5.84375 3.890625 -5.84375 L 4.890625 -5.84375 C 5.828125 -5.84375 6.578125 -5.3125 6.578125 -4.15625 C 6.578125 -3.640625 6.34375 -2.21875 5.65625 -1.328125 C 5.234375 -0.8125 4.5 -0.28125 3.515625 -0.28125 L 2.4375 -0.28125 C 2.3125 -0.28125 2.296875 -0.28125 2.25 -0.28125 C 2.171875 -0.296875 2.140625 -0.296875 2.140625 -0.359375 C 2.140625 -0.390625 2.140625 -0.40625 2.1875 -0.578125 Z M 3.40625 -5.484375 "/>
</g>
<g id="glyph-0-4">
<path d="M 6.90625 -5.140625 C 7 -5.515625 7.171875 -5.8125 7.875 -5.84375 C 7.921875 -5.84375 8.03125 -5.84375 8.03125 -6 C 8.03125 -6.0625 7.984375 -6.109375 7.90625 -6.109375 C 7.703125 -6.109375 7.203125 -6.09375 7.015625 -6.09375 C 6.78125 -6.09375 6.765625 -6.09375 6.546875 -6.09375 C 6.40625 -6.09375 6.21875 -6.109375 6.09375 -6.109375 C 6.046875 -6.109375 5.921875 -6.109375 5.921875 -5.953125 C 5.921875 -5.84375 6.03125 -5.84375 6.09375 -5.84375 C 6.421875 -5.828125 6.6875 -5.75 6.6875 -5.453125 C 6.6875 -5.40625 6.65625 -5.28125 6.65625 -5.265625 L 5.65625 -1.296875 L 3.609375 -5.9375 C 3.53125 -6.109375 3.515625 -6.109375 3.3125 -6.109375 L 2.125 -6.109375 C 1.953125 -6.109375 1.859375 -6.109375 1.859375 -5.953125 C 1.859375 -5.84375 1.9375 -5.84375 2.125 -5.84375 C 2.171875 -5.84375 2.5 -5.84375 2.71875 -5.78125 L 1.5 -0.953125 C 1.390625 -0.515625 1.171875 -0.296875 0.546875 -0.28125 C 0.515625 -0.28125 0.390625 -0.265625 0.390625 -0.109375 C 0.390625 -0.09375 0.390625 0 0.515625 0 C 0.625 0 0.84375 -0.015625 0.96875 -0.015625 C 1.109375 -0.03125 1.125 -0.03125 1.421875 -0.03125 C 1.640625 -0.03125 1.65625 -0.03125 1.875 -0.015625 C 2.015625 -0.015625 2.203125 0 2.34375 0 C 2.375 0 2.5 0 2.5 -0.15625 C 2.5 -0.265625 2.40625 -0.28125 2.3125 -0.28125 C 1.890625 -0.28125 1.734375 -0.421875 1.734375 -0.65625 C 1.734375 -0.71875 1.75 -0.734375 1.765625 -0.859375 L 2.953125 -5.578125 L 5.34375 -0.15625 C 5.40625 -0.015625 5.421875 0 5.5 0 C 5.625 0 5.625 -0.03125 5.671875 -0.1875 Z M 6.90625 -5.140625 "/>
</g>
<g id="glyph-1-0">
<path d="M 1.09375 -2.625 C 1.09375 -3.296875 1.15625 -3.875 1.4375 -4.359375 C 1.671875 -4.75 2.078125 -5.078125 2.578125 -5.078125 C 2.75 -5.078125 3.109375 -5.0625 3.296875 -4.78125 C 2.9375 -4.765625 2.90625 -4.5 2.90625 -4.40625 C 2.90625 -4.171875 3.078125 -4.03125 3.28125 -4.03125 C 3.421875 -4.03125 3.65625 -4.125 3.65625 -4.421875 C 3.65625 -4.90625 3.296875 -5.28125 2.578125 -5.28125 C 1.46875 -5.28125 0.34375 -4.234375 0.34375 -2.515625 C 0.34375 -0.359375 1.359375 0.171875 2.125 0.171875 C 2.5 0.171875 2.921875 0.0625 3.28125 -0.28125 C 3.59375 -0.59375 3.859375 -0.921875 3.859375 -1.609375 C 3.859375 -2.65625 3.078125 -3.390625 2.1875 -3.390625 C 1.625 -3.390625 1.28125 -3.015625 1.09375 -2.625 Z M 2.125 -0.078125 C 1.703125 -0.078125 1.4375 -0.359375 1.3125 -0.59375 C 1.140625 -0.953125 1.125 -1.484375 1.125 -1.796875 C 1.125 -2.578125 1.546875 -3.171875 2.15625 -3.171875 C 2.5625 -3.171875 2.796875 -2.953125 2.953125 -2.6875 C 3.125 -2.390625 3.125 -2.03125 3.125 -1.625 C 3.125 -1.21875 3.125 -0.859375 2.953125 -0.578125 C 2.75 -0.21875 2.46875 -0.078125 2.125 -0.078125 Z M 2.125 -0.078125 "/>
</g>
<g id="glyph-1-1">
<path d="M 2.640625 -2.875 C 3.078125 -3.078125 3.625 -3.484375 3.625 -4.109375 C 3.625 -4.859375 2.859375 -5.28125 2.109375 -5.28125 C 1.265625 -5.28125 0.59375 -4.703125 0.59375 -3.953125 C 0.59375 -3.671875 0.6875 -3.390625 0.890625 -3.171875 C 1.03125 -3 1.0625 -2.984375 1.546875 -2.671875 C 0.5625 -2.234375 0.34375 -1.65625 0.34375 -1.203125 C 0.34375 -0.328125 1.234375 0.171875 2.09375 0.171875 C 3.078125 0.171875 3.859375 -0.5 3.859375 -1.34375 C 3.859375 -1.84375 3.59375 -2.171875 3.46875 -2.3125 C 3.328125 -2.4375 3.328125 -2.4375 2.640625 -2.875 Z M 1.40625 -3.625 C 1.171875 -3.75 0.984375 -3.984375 0.984375 -4.265625 C 0.984375 -4.765625 1.53125 -5.078125 2.09375 -5.078125 C 2.71875 -5.078125 3.234375 -4.65625 3.234375 -4.109375 C 3.234375 -3.640625 2.875 -3.25 2.40625 -3.015625 Z M 1.796875 -2.53125 C 1.828125 -2.515625 2.734375 -1.953125 2.875 -1.875 C 3 -1.796875 3.40625 -1.546875 3.40625 -1.0625 C 3.40625 -0.453125 2.765625 -0.078125 2.109375 -0.078125 C 1.40625 -0.078125 0.796875 -0.5625 0.796875 -1.203125 C 0.796875 -1.8125 1.25 -2.28125 1.796875 -2.53125 Z M 1.796875 -2.53125 "/>
</g>
<g id="glyph-1-2">
<path d="M 1.109375 -4.46875 C 1.21875 -4.4375 1.53125 -4.359375 1.875 -4.359375 C 2.859375 -4.359375 3.46875 -5.0625 3.46875 -5.171875 C 3.46875 -5.265625 3.40625 -5.28125 3.375 -5.28125 C 3.359375 -5.28125 3.34375 -5.28125 3.265625 -5.25 C 2.953125 -5.125 2.59375 -5.03125 2.15625 -5.03125 C 1.6875 -5.03125 1.296875 -5.15625 1.0625 -5.25 C 0.984375 -5.28125 0.96875 -5.28125 0.953125 -5.28125 C 0.84375 -5.28125 0.84375 -5.203125 0.84375 -5.0625 L 0.84375 -2.734375 C 0.84375 -2.578125 0.84375 -2.484375 0.984375 -2.484375 C 1.046875 -2.484375 1.0625 -2.515625 1.109375 -2.578125 C 1.203125 -2.703125 1.5 -3.109375 2.171875 -3.109375 C 2.625 -3.109375 2.84375 -2.75 2.90625 -2.59375 C 3.046875 -2.3125 3.0625 -1.9375 3.0625 -1.625 C 3.0625 -1.34375 3.046875 -0.90625 2.828125 -0.5625 C 2.6875 -0.3125 2.359375 -0.078125 1.9375 -0.078125 C 1.421875 -0.078125 0.921875 -0.390625 0.734375 -0.921875 C 0.75 -0.90625 0.796875 -0.90625 0.8125 -0.90625 C 1.03125 -0.90625 1.203125 -1.046875 1.203125 -1.296875 C 1.203125 -1.59375 0.984375 -1.6875 0.8125 -1.6875 C 0.671875 -1.6875 0.421875 -1.609375 0.421875 -1.265625 C 0.421875 -0.5625 1.046875 0.171875 1.953125 0.171875 C 2.953125 0.171875 3.796875 -0.609375 3.796875 -1.59375 C 3.796875 -2.515625 3.125 -3.328125 2.1875 -3.328125 C 1.796875 -3.328125 1.421875 -3.203125 1.109375 -2.9375 Z M 1.109375 -4.46875 "/>
</g>
<g id="glyph-1-3">
<path d="M 3.140625 -5.140625 C 3.140625 -5.3125 3.140625 -5.375 2.96875 -5.375 C 2.859375 -5.375 2.859375 -5.359375 2.78125 -5.25 L 0.234375 -1.5625 L 0.234375 -1.296875 L 2.484375 -1.296875 L 2.484375 -0.640625 C 2.484375 -0.34375 2.453125 -0.265625 1.84375 -0.265625 L 1.65625 -0.265625 L 1.65625 0 C 2.34375 -0.03125 2.359375 -0.03125 2.8125 -0.03125 C 3.265625 -0.03125 3.28125 -0.03125 3.953125 0 L 3.953125 -0.265625 L 3.765625 -0.265625 C 3.15625 -0.265625 3.140625 -0.34375 3.140625 -0.640625 L 3.140625 -1.296875 L 3.984375 -1.296875 L 3.984375 -1.5625 L 3.140625 -1.5625 Z M 2.53125 -4.5 L 2.53125 -1.5625 L 0.515625 -1.5625 Z M 2.53125 -4.5 "/>
</g>
<g id="glyph-1-4">
<path d="M 2.25 -1.625 C 2.375 -1.734375 2.703125 -2 2.828125 -2.109375 C 3.328125 -2.5625 3.796875 -3 3.796875 -3.734375 C 3.796875 -4.671875 3 -5.28125 2 -5.28125 C 1.046875 -5.28125 0.421875 -4.5625 0.421875 -3.859375 C 0.421875 -3.46875 0.734375 -3.40625 0.84375 -3.40625 C 1.015625 -3.40625 1.25 -3.53125 1.25 -3.828125 C 1.25 -4.25 0.859375 -4.25 0.765625 -4.25 C 1 -4.828125 1.53125 -5.03125 1.921875 -5.03125 C 2.65625 -5.03125 3.03125 -4.390625 3.03125 -3.734375 C 3.03125 -2.90625 2.453125 -2.296875 1.515625 -1.34375 L 0.515625 -0.296875 C 0.421875 -0.21875 0.421875 -0.203125 0.421875 0 L 3.5625 0 L 3.796875 -1.421875 L 3.546875 -1.421875 C 3.515625 -1.265625 3.453125 -0.859375 3.359375 -0.71875 C 3.3125 -0.65625 2.71875 -0.65625 2.578125 -0.65625 L 1.171875 -0.65625 Z M 2.25 -1.625 "/>
</g>
<g id="glyph-1-5">
<path d="M 2.015625 -2.65625 C 2.640625 -2.65625 3.03125 -2.1875 3.03125 -1.359375 C 3.03125 -0.359375 2.46875 -0.078125 2.046875 -0.078125 C 1.609375 -0.078125 1.015625 -0.234375 0.734375 -0.65625 C 1.03125 -0.65625 1.21875 -0.828125 1.21875 -1.09375 C 1.21875 -1.359375 1.046875 -1.53125 0.78125 -1.53125 C 0.578125 -1.53125 0.34375 -1.40625 0.34375 -1.078125 C 0.34375 -0.328125 1.15625 0.171875 2.0625 0.171875 C 3.125 0.171875 3.859375 -0.5625 3.859375 -1.359375 C 3.859375 -2.015625 3.34375 -2.625 2.53125 -2.796875 C 3.15625 -3.015625 3.625 -3.5625 3.625 -4.203125 C 3.625 -4.828125 2.90625 -5.28125 2.078125 -5.28125 C 1.234375 -5.28125 0.59375 -4.828125 0.59375 -4.21875 C 0.59375 -3.921875 0.78125 -3.796875 1 -3.796875 C 1.234375 -3.796875 1.40625 -3.984375 1.40625 -4.203125 C 1.40625 -4.5 1.140625 -4.609375 0.96875 -4.625 C 1.296875 -5.0625 1.921875 -5.078125 2.0625 -5.078125 C 2.265625 -5.078125 2.875 -5.015625 2.875 -4.203125 C 2.875 -3.640625 2.640625 -3.3125 2.53125 -3.1875 C 2.296875 -2.9375 2.109375 -2.921875 1.625 -2.890625 C 1.46875 -2.875 1.40625 -2.875 1.40625 -2.765625 C 1.40625 -2.65625 1.484375 -2.65625 1.609375 -2.65625 Z M 2.015625 -2.65625 "/>
</g>
<g id="glyph-1-6">
<path d="M 2.5 -5.0625 C 2.5 -5.28125 2.484375 -5.28125 2.265625 -5.28125 C 1.9375 -4.96875 1.515625 -4.78125 0.765625 -4.78125 L 0.765625 -4.515625 C 0.984375 -4.515625 1.40625 -4.515625 1.875 -4.734375 L 1.875 -0.65625 C 1.875 -0.359375 1.84375 -0.265625 1.09375 -0.265625 L 0.8125 -0.265625 L 0.8125 0 C 1.140625 -0.03125 1.828125 -0.03125 2.171875 -0.03125 C 2.53125 -0.03125 3.234375 -0.03125 3.5625 0 L 3.5625 -0.265625 L 3.28125 -0.265625 C 2.515625 -0.265625 2.5 -0.359375 2.5 -0.65625 Z M 2.5 -5.0625 "/>
</g>
<g id="glyph-2-0">
<path d="M 3.25 -1.5 C 3.25 -2.25 2.640625 -2.84375 1.90625 -2.84375 C 1.15625 -2.84375 0.5625 -2.25 0.5625 -1.5 C 0.5625 -0.734375 1.15625 -0.140625 1.90625 -0.140625 C 2.640625 -0.140625 3.25 -0.734375 3.25 -1.5 Z M 1.90625 -0.453125 C 1.328125 -0.453125 0.859375 -0.90625 0.859375 -1.5 C 0.859375 -2.078125 1.328125 -2.53125 1.90625 -2.53125 C 2.484375 -2.53125 2.9375 -2.078125 2.9375 -1.5 C 2.9375 -0.90625 2.484375 -0.453125 1.90625 -0.453125 Z M 1.90625 -0.453125 "/>
</g>
<g id="glyph-3-0">
<path d="M -0.9375 -5.5625 C -1.0625 -5.75 -1.078125 -5.734375 -1.265625 -5.609375 C -1.34375 -5.171875 -1.5625 -4.765625 -2.171875 -4.328125 L -2.015625 -4.109375 C -1.84375 -4.234375 -1.5 -4.484375 -1.265625 -4.921875 L 1.125 -1.625 C 1.3125 -1.390625 1.34375 -1.296875 0.734375 -0.859375 L 0.5 -0.6875 L 0.65625 -0.46875 C 0.90625 -0.703125 1.46875 -1.109375 1.75 -1.3125 C 2.03125 -1.515625 2.609375 -1.921875 2.890625 -2.09375 L 2.734375 -2.3125 L 2.5 -2.140625 C 1.875 -1.6875 1.828125 -1.765625 1.640625 -2 Z M -0.9375 -5.5625 "/>
</g>
<g id="glyph-3-1">
<path d="M 1.046875 -1.296875 C 0.890625 -1.5 0.625 -1.53125 0.4375 -1.390625 C 0.21875 -1.234375 0.203125 -0.984375 0.328125 -0.796875 C 0.5 -0.578125 0.765625 -0.5625 0.953125 -0.6875 C 1.171875 -0.84375 1.171875 -1.109375 1.046875 -1.296875 Z M 1.046875 -1.296875 "/>
</g>
<g id="glyph-3-2">
<path d="M -0.46875 -6 C -0.5625 -6.140625 -0.609375 -6.203125 -0.75 -6.09375 C -0.84375 -6.03125 -0.828125 -6.015625 -0.828125 -5.875 L -0.734375 -1.40625 L -0.578125 -1.1875 L 1.25 -2.5 L 1.640625 -1.96875 C 1.8125 -1.734375 1.828125 -1.65625 1.34375 -1.296875 L 1.1875 -1.1875 L 1.34375 -0.96875 C 1.890625 -1.40625 1.890625 -1.421875 2.265625 -1.6875 C 2.625 -1.953125 2.640625 -1.953125 3.203125 -2.3125 L 3.046875 -2.53125 L 2.890625 -2.421875 C 2.40625 -2.0625 2.34375 -2.125 2.171875 -2.359375 L 1.78125 -2.890625 L 2.46875 -3.390625 L 2.3125 -3.609375 L 1.625 -3.109375 Z M -0.59375 -5.125 L 1.125 -2.75 L -0.5 -1.5625 Z M -0.59375 -5.125 "/>
</g>
<g id="glyph-3-3">
<path d="M 0.0625 -3.34375 C 0.578125 -3.703125 1.171875 -3.546875 1.65625 -2.875 C 2.25 -2.078125 1.953125 -1.515625 1.609375 -1.265625 C 1.25 -1 0.6875 -0.78125 0.203125 -0.96875 C 0.4375 -1.140625 0.5 -1.390625 0.34375 -1.609375 C 0.1875 -1.8125 -0.046875 -1.84375 -0.25 -1.6875 C -0.421875 -1.578125 -0.546875 -1.34375 -0.34375 -1.078125 C 0.09375 -0.46875 1.03125 -0.53125 1.765625 -1.0625 C 2.625 -1.6875 2.796875 -2.71875 2.328125 -3.359375 C 1.9375 -3.890625 1.15625 -4.078125 0.40625 -3.75 C 0.796875 -4.28125 0.84375 -5.015625 0.46875 -5.53125 C 0.109375 -6.03125 -0.734375 -5.984375 -1.40625 -5.5 C -2.09375 -5 -2.34375 -4.25 -1.984375 -3.765625 C -1.8125 -3.515625 -1.578125 -3.53125 -1.40625 -3.671875 C -1.21875 -3.796875 -1.203125 -4.0625 -1.328125 -4.234375 C -1.5 -4.46875 -1.78125 -4.40625 -1.9375 -4.3125 C -1.921875 -4.859375 -1.421875 -5.234375 -1.3125 -5.3125 C -1.15625 -5.4375 -0.609375 -5.75 -0.140625 -5.09375 C 0.1875 -4.640625 0.203125 -4.234375 0.171875 -4.0625 C 0.140625 -3.71875 -0.015625 -3.59375 -0.375 -3.296875 C -0.5 -3.1875 -0.546875 -3.15625 -0.484375 -3.0625 C -0.421875 -2.984375 -0.359375 -3.03125 -0.265625 -3.09375 Z M 0.0625 -3.34375 "/>
</g>
<g id="glyph-3-4">
<path d="M 1.671875 -4.328125 C 1.171875 -5.03125 0.78125 -5.390625 0.296875 -5.640625 C -0.421875 -6.015625 -1.03125 -5.78125 -1.390625 -5.515625 C -2.1875 -4.9375 -2.078125 -4.125 -2.03125 -3.859375 C -1.90625 -3.234375 -1.46875 -2.578125 -1.21875 -2.234375 C -0.921875 -1.8125 -0.421875 -1.171875 0.25 -0.90625 C 0.90625 -0.625 1.453125 -0.84375 1.796875 -1.09375 C 2.109375 -1.3125 2.59375 -1.828125 2.453125 -2.6875 C 2.359375 -3.328125 1.96875 -3.90625 1.671875 -4.328125 Z M 1.671875 -1.28125 C 1.46875 -1.125 0.921875 -0.90625 0.3125 -1.484375 C -0.03125 -1.796875 -0.46875 -2.40625 -0.71875 -2.734375 C -1.046875 -3.1875 -1.359375 -3.640625 -1.546875 -4.03125 C -1.890625 -4.78125 -1.421875 -5.21875 -1.265625 -5.328125 C -1.046875 -5.484375 -0.53125 -5.71875 0.03125 -5.21875 C 0.375 -4.921875 0.71875 -4.4375 1.03125 -4 C 1.3125 -3.625 1.71875 -3.046875 1.90625 -2.625 C 2.265625 -1.859375 1.890625 -1.4375 1.671875 -1.28125 Z M 1.671875 -1.28125 "/>
</g>
</g>
</defs>
<path fill="none" stroke-width="0.89664" stroke-linecap="round" stroke-linejoin="round" stroke="rgb(13.723755%, 13.723755%, 13.723755%)" stroke-opacity="1" stroke-miterlimit="10" d="M -69.705445 -50.462202 L 62.327453 45.112741 " transform="matrix(0.998153, 0, 0, -0.998153, 90.162652, 59.103647)"/>
<path fill="none" stroke-width="0.89664" stroke-linecap="round" stroke-linejoin="round" stroke="rgb(13.723755%, 13.723755%, 13.723755%)" stroke-opacity="1" stroke-miterlimit="10" d="M -74.816446 24.461321 L 66.890567 -21.854682 " transform="matrix(0.998153, 0, 0, -0.998153, 90.162652, 59.103647)"/>
<path fill="none" stroke-width="0.89664" stroke-linecap="round" stroke-linejoin="round" stroke="rgb(13.723755%, 13.723755%, 13.723755%)" stroke-opacity="1" stroke-miterlimit="10" d="M -69.705445 -50.462202 L -74.816446 24.461321 " transform="matrix(0.998153, 0, 0, -0.998153, 90.162652, 59.103647)"/>
<path fill="none" stroke-width="0.89664" stroke-linecap="round" stroke-linejoin="round" stroke="rgb(13.723755%, 13.723755%, 13.723755%)" stroke-opacity="1" stroke-miterlimit="10" d="M 62.327453 45.112741 L 66.890567 -21.854682 " transform="matrix(0.998153, 0, 0, -0.998153, 90.162652, 59.103647)"/>
<g fill="rgb(0%, 0%, 0%)" fill-opacity="1">
<use xlink:href="#glyph-0-0" x="9.860227" y="119.414061"/>
</g>
<g fill="rgb(0%, 0%, 0%)" fill-opacity="1">
<use xlink:href="#glyph-0-1" x="4.249608" y="30.859903"/>
</g>
<g fill="rgb(0%, 0%, 0%)" fill-opacity="1">
<use xlink:href="#glyph-0-2" x="156.20047" y="10.244047"/>
</g>
<g fill="rgb(0%, 0%, 0%)" fill-opacity="1">
<use xlink:href="#glyph-0-3" x="160.756041" y="90.859892"/>
</g>
<g fill="rgb(0%, 0%, 0%)" fill-opacity="1">
<use xlink:href="#glyph-0-4" x="78.535165" y="52.671548"/>
</g>
<g fill="rgb(0%, 0%, 0%)" fill-opacity="1">
<use xlink:href="#glyph-1-0" x="19.017285" y="50.267995"/>
<use xlink:href="#glyph-1-1" x="23.243979" y="50.267995"/>
</g>
<g fill="rgb(0%, 0%, 0%)" fill-opacity="1">
<use xlink:href="#glyph-2-0" x="27.469646" y="47.46019"/>
</g>
<g fill="rgb(0%, 0%, 0%)" fill-opacity="1">
<use xlink:href="#glyph-1-2" x="139.356634" y="31.057538"/>
<use xlink:href="#glyph-1-1" x="143.583328" y="31.057538"/>
</g>
<g fill="rgb(0%, 0%, 0%)" fill-opacity="1">
<use xlink:href="#glyph-2-0" x="147.808995" y="28.249733"/>
</g>
<g fill="rgb(0%, 0%, 0%)" fill-opacity="1">
<use xlink:href="#glyph-1-2" x="68.345019" y="64.350938"/>
<use xlink:href="#glyph-1-3" x="72.571713" y="64.350938"/>
</g>
<g fill="rgb(0%, 0%, 0%)" fill-opacity="1">
<use xlink:href="#glyph-2-0" x="76.798379" y="61.543133"/>
</g>
<g fill="rgb(0%, 0%, 0%)" fill-opacity="1">
<use xlink:href="#glyph-1-4" x="103.485003" y="59.246383"/>
</g>
<g fill="rgb(0%, 0%, 0%)" fill-opacity="1">
<use xlink:href="#glyph-1-5" x="146.019307" y="72.183447"/>
</g>
<g fill="rgb(0%, 0%, 0%)" fill-opacity="1">
<use xlink:href="#glyph-1-6" x="25.315632" y="97.432731"/>
</g>
<g fill="rgb(0%, 0%, 0%)" fill-opacity="1">
<use xlink:href="#glyph-3-0" x="44.373371" y="81.906457"/>
<use xlink:href="#glyph-3-0" x="47.797035" y="79.428135"/>
<use xlink:href="#glyph-3-1" x="51.2207" y="76.949813"/>
<use xlink:href="#glyph-3-2" x="53.122306" y="75.573279"/>
</g>
<g fill="rgb(0%, 0%, 0%)" fill-opacity="1">
<use xlink:href="#glyph-3-0" x="123.088733" y="51.919938"/>
<use xlink:href="#glyph-3-3" x="126.512397" y="49.441616"/>
<use xlink:href="#glyph-3-1" x="129.936061" y="46.963294"/>
<use xlink:href="#glyph-3-4" x="131.837667" y="45.58676"/>
</g>
</svg>
